<?xml version="1.0" standalone="no"?>
<!DOCTYPE svg PUBLIC "-//W3C//DTD SVG 20010904//EN"
 "http://www.w3.org/TR/2001/REC-SVG-20010904/DTD/svg10.dtd">
<svg version="1.0" xmlns="http://www.w3.org/2000/svg"
 width="1080.000000pt" height="1080.000000pt" viewBox="0 0 1080.000000 1080.000000"
 preserveAspectRatio="xMidYMid meet">
<metadata>
Created by potrace 1.14, written by Peter Selinger 2001-2017
</metadata>
<g transform="translate(0.000000,1080.000000) scale(0.100000,-0.100000)"
fill="#000000" stroke="none">
<path d="M4760 8398 c-25 -4 -103 -14 -175 -23 -71 -8 -157 -20 -190 -27 -61
-11 -128 -39 -140 -58 -3 -5 -23 -10 -43 -10 -56 0 -81 -10 -84 -32 -2 -15
-15 -25 -43 -33 -22 -6 -89 -35 -150 -64 -60 -29 -127 -59 -149 -67 -21 -8
-196 -107 -389 -221 -256 -151 -370 -224 -421 -270 -38 -35 -117 -96 -175
-135 -62 -42 -150 -116 -210 -176 -60 -60 -124 -114 -153 -128 -38 -19 -48
-29 -43 -43 6 -21 -9 -36 -49 -45 -38 -9 -87 -61 -126 -134 -24 -45 -40 -62
-70 -76 -45 -20 -270 -239 -312 -303 -15 -23 -65 -89 -111 -146 -46 -57 -97
-126 -113 -153 -15 -27 -57 -89 -91 -138 -126 -176 -290 -549 -423 -961 -21
-67 -40 -107 -56 -121 -51 -42 -73 -222 -76 -614 l-3 -275 37 -107 c43 -125
103 -246 168 -343 92 -136 126 -172 197 -209 38 -20 91 -56 119 -80 41 -36 65
-48 120 -61 127 -30 338 -56 504 -62 297 -11 537 22 995 136 227 56 427 101
451 101 3 0 26 22 52 48 41 42 54 50 97 55 28 3 91 21 140 40 50 19 113 38
140 41 30 4 95 29 160 62 83 41 125 56 171 60 48 5 62 11 70 27 6 14 29 27 69
40 43 13 70 28 95 55 31 34 55 45 225 102 143 48 197 71 218 92 25 24 34 27
68 22 34 -6 41 -4 45 12 3 11 20 29 39 41 72 48 274 225 375 329 122 127 193
228 226 323 28 81 49 253 37 300 l-8 33 -111 -144 c-230 -296 -309 -364 -794
-684 -254 -167 -256 -168 -485 -262 -126 -51 -295 -124 -375 -162 -130 -62
-161 -72 -300 -100 -136 -28 -161 -36 -212 -70 -44 -29 -72 -40 -116 -45 -75
-8 -127 -22 -141 -39 -8 -9 -22 -11 -44 -7 -46 10 -123 -6 -187 -39 -77 -40
-173 -53 -655 -90 -143 -11 -291 -24 -328 -28 -59 -7 -74 -6 -108 11 -22 11
-77 24 -122 30 -94 12 -139 37 -285 160 -186 155 -273 308 -336 589 l-24 107
18 73 c22 86 66 343 75 443 5 52 14 82 36 115 42 68 59 114 68 191 9 65 13 74
56 120 38 40 46 55 41 75 -4 13 -2 24 3 24 18 0 59 86 96 200 60 184 81 227
121 240 29 10 36 18 45 56 7 26 17 44 26 44 23 0 63 47 63 75 0 19 29 63 92
143 229 291 347 416 605 640 77 68 155 141 172 162 17 22 51 48 74 58 25 11
62 41 86 70 24 28 62 63 85 78 22 15 115 82 206 149 91 68 188 137 216 154 29
17 54 40 57 51 3 13 22 24 59 35 72 21 194 98 293 184 59 52 88 71 109 71 19
0 43 13 72 40 24 22 54 40 66 40 13 0 52 14 88 31 55 26 73 30 116 26 49 -5
54 -3 85 30 58 59 85 70 224 88 72 9 146 20 167 24 28 7 42 4 65 -10 15 -10
79 -37 142 -60 136 -51 186 -86 224 -160 39 -77 50 -172 37 -327 -12 -134 -18
-158 -47 -185 -11 -9 -39 -46 -63 -80 -36 -54 -50 -66 -93 -81 -28 -10 -65
-32 -83 -50 -22 -22 -38 -30 -57 -28 -18 2 -35 -5 -52 -22 -24 -24 -26 -32
-23 -94 3 -58 6 -68 25 -77 35 -15 19 -48 -61 -122 -140 -131 -302 -300 -335
-349 -25 -38 -49 -58 -99 -84 -121 -64 -172 -125 -172 -208 0 -56 25 -75 107
-80 123 -8 234 37 291 117 16 24 38 41 55 45 16 3 32 16 38 30 6 13 52 57 102
97 99 80 188 179 262 291 27 40 66 93 88 118 22 25 53 69 71 99 30 53 33 55
116 83 111 38 147 44 320 58 196 15 301 33 509 84 152 37 189 43 271 41 82 -1
105 -6 170 -34 111 -47 175 -94 201 -148 20 -41 21 -55 16 -157 -11 -189 -49
-320 -162 -566 -34 -74 -75 -169 -90 -210 -44 -113 -216 -448 -355 -690 -68
-118 -172 -310 -230 -426 -59 -116 -128 -239 -154 -273 -32 -45 -54 -90 -75
-155 -18 -60 -42 -110 -65 -140 -28 -37 -36 -57 -36 -88 0 -31 -7 -49 -32 -78
-18 -20 -46 -61 -61 -89 -21 -40 -38 -57 -67 -69 -33 -14 -39 -23 -44 -55 -8
-47 -28 -87 -72 -145 -64 -84 -68 -259 -7 -320 21 -21 31 -24 74 -20 66 7 165
57 222 114 59 58 78 94 75 141 -2 32 3 41 44 77 49 44 73 80 63 96 -3 6 4 14
17 19 13 5 33 23 46 40 12 17 31 31 42 31 14 0 22 11 30 39 6 22 30 64 55 94
24 30 55 79 68 108 14 30 41 70 62 89 43 41 65 79 65 113 0 16 8 28 25 35 13
6 41 34 60 61 20 28 44 53 54 56 10 3 34 29 54 58 20 28 97 110 172 181 75 71
155 155 178 187 22 33 45 59 50 59 22 0 101 69 171 150 48 56 102 105 146 134
38 26 96 74 127 108 131 141 150 158 177 158 21 0 33 10 54 45 17 29 36 47 52
50 48 11 75 31 113 85 22 32 51 61 70 69 18 7 46 19 64 27 17 7 85 64 150 127
98 94 126 115 166 126 50 15 67 33 67 75 0 27 10 32 82 38 36 4 37 3 31 -22
-20 -84 -77 -198 -179 -355 -116 -180 -164 -263 -196 -338 -16 -38 -47 -86
-71 -112 -25 -25 -73 -101 -112 -176 -39 -73 -88 -153 -111 -178 -24 -27 -44
-61 -48 -82 -3 -20 -23 -55 -43 -78 -20 -24 -46 -71 -58 -104 -16 -45 -30 -66
-49 -75 -29 -15 -128 -157 -178 -257 -17 -33 -45 -73 -64 -88 -20 -17 -52 -65
-80 -122 -26 -52 -58 -107 -72 -122 -13 -15 -48 -74 -76 -132 -43 -89 -51
-113 -51 -162 0 -99 35 -117 159 -78 53 16 79 32 124 74 31 30 94 81 139 114
88 64 146 132 165 194 10 32 21 43 72 69 92 48 257 218 321 332 52 92 176 235
228 262 15 8 41 39 57 68 30 53 60 73 92 61 10 -4 18 6 26 32 24 80 231 284
405 398 44 29 65 52 84 89 45 89 81 134 112 141 54 12 139 84 251 215 108 127
147 160 190 160 17 0 20 4 15 21 -6 17 5 31 51 72 80 73 152 126 201 150 29
14 43 28 46 47 3 15 38 61 77 103 66 71 75 77 111 77 55 0 91 21 180 106 43
41 85 74 94 74 9 0 28 9 42 20 14 11 38 20 53 20 27 0 28 -2 20 -35 -9 -41
-69 -151 -117 -217 -19 -26 -46 -69 -60 -95 -14 -26 -70 -109 -124 -184 -129
-178 -180 -264 -187 -311 -3 -28 -9 -38 -23 -38 -22 0 -39 -29 -39 -66 0 -16
-33 -84 -79 -163 -94 -162 -157 -287 -181 -357 -10 -28 -43 -84 -75 -124 -80
-105 -133 -197 -151 -266 -20 -80 -109 -262 -173 -354 -37 -54 -60 -102 -82
-173 -18 -60 -41 -110 -58 -130 -28 -32 -103 -237 -103 -282 0 -12 11 -40 26
-61 14 -22 26 -53 26 -70 0 -30 3 -33 51 -44 66 -16 131 -7 244 34 126 47 155
56 177 56 10 0 42 18 71 39 60 45 172 103 237 122 25 8 72 34 105 59 110 84
308 204 470 285 180 91 247 134 373 239 133 112 133 112 164 244 15 64 25 118
23 120 -2 2 -50 -21 -107 -51 -57 -30 -146 -72 -198 -92 -52 -21 -108 -48
-125 -60 -16 -13 -53 -34 -81 -48 -28 -14 -64 -37 -80 -50 -16 -13 -50 -34
-76 -45 -26 -11 -134 -68 -240 -125 -222 -121 -449 -236 -528 -267 -63 -26
-152 -51 -158 -45 -2 2 3 38 12 80 9 43 16 96 16 119 0 37 6 49 51 95 63 66
109 161 116 241 4 39 10 60 18 60 23 0 64 60 81 116 11 39 20 54 33 54 10 0
29 13 43 29 15 16 30 30 35 32 4 2 30 56 57 119 73 174 193 395 380 705 93
154 213 355 267 446 54 91 134 221 178 289 44 67 106 173 138 236 31 63 63
114 69 114 22 0 74 71 123 168 27 53 59 106 71 117 65 58 93 213 50 283 -24
39 -81 66 -123 58 -42 -8 -80 -39 -149 -119 -34 -40 -78 -83 -97 -96 -20 -14
-62 -48 -93 -77 -32 -29 -75 -58 -99 -65 -36 -12 -47 -22 -68 -64 -22 -42 -49
-67 -171 -158 -80 -60 -212 -166 -295 -236 -82 -70 -172 -142 -199 -161 -55
-37 -140 -109 -266 -225 -47 -43 -109 -95 -137 -117 -29 -21 -71 -63 -93 -93
-22 -30 -65 -70 -96 -90 -66 -42 -216 -185 -275 -262 -27 -34 -59 -62 -86 -75
-25 -12 -68 -48 -103 -88 -40 -45 -75 -74 -104 -86 -33 -14 -46 -25 -50 -45
-9 -48 -70 -113 -163 -174 -69 -46 -93 -67 -98 -88 -4 -18 -58 -80 -146 -168
-125 -125 -169 -159 -169 -129 0 21 45 98 126 216 77 112 144 233 144 260 0 7
10 14 23 18 25 6 47 43 47 78 0 13 20 40 48 67 62 59 77 82 101 162 12 37 32
75 46 89 20 19 25 33 25 75 0 45 3 53 25 63 37 17 112 124 166 237 81 168 138
372 110 389 -6 4 -27 32 -46 61 -47 74 -73 89 -138 82 -89 -11 -179 -64 -313
-185 -132 -119 -190 -163 -258 -191 -34 -15 -46 -26 -51 -50 -6 -31 -13 -34
-75 -46 -25 -5 -56 -28 -110 -80 -41 -40 -117 -99 -169 -130 -111 -68 -154
-105 -170 -143 -7 -16 -26 -36 -44 -46 -18 -10 -118 -105 -223 -212 -144 -147
-203 -199 -241 -217 -34 -16 -67 -43 -101 -84 -28 -33 -81 -87 -118 -119 -37
-33 -80 -71 -94 -86 -14 -15 -47 -41 -73 -58 -26 -16 -47 -36 -47 -45 0 -8
-13 -21 -30 -30 -16 -8 -40 -29 -52 -45 -26 -36 -44 -38 -52 -7 -10 40 12 89
60 138 37 37 46 54 48 85 3 49 18 77 136 254 218 327 300 485 300 580 0 17 15
42 44 73 68 71 111 167 111 246 0 56 3 65 22 72 79 29 126 291 103 577 -12
159 -16 182 -31 182 -18 0 -79 64 -124 129 -35 51 -55 70 -75 75 -16 3 -31 14
-35 25 -6 20 -131 72 -170 71 -11 0 -139 -4 -285 -9 l-265 -8 -140 -40 c-77
-22 -172 -46 -210 -52 -61 -10 -266 -30 -272 -27 -1 1 4 42 12 91 19 125 30
431 16 440 -22 13 -53 89 -72 178 -22 103 -54 176 -96 224 -23 26 -55 41 -178
81 -163 54 -207 62 -275 50z"/>
</g>
</svg>
