<?xml version="1.0" standalone="no"?>
<!DOCTYPE svg PUBLIC "-//W3C//DTD SVG 20010904//EN"
 "http://www.w3.org/TR/2001/REC-SVG-20010904/DTD/svg10.dtd">
<svg version="1.0" xmlns="http://www.w3.org/2000/svg"
 width="1080.000000pt" height="1080.000000pt" viewBox="0 0 1080.000000 1080.000000"
 preserveAspectRatio="xMidYMid meet">
<metadata>
Created by potrace 1.14, written by Peter Selinger 2001-2017
</metadata>
<g transform="translate(0.000000,1080.000000) scale(0.100000,-0.100000)"
fill="#000000" stroke="none">
<path d="M3407 8139 c-246 -20 -395 -72 -567 -199 -111 -81 -162 -131 -210
-206 -58 -88 -187 -380 -215 -487 -40 -148 -104 -624 -115 -847 -13 -258 -13
-1677 0 -1950 16 -346 34 -488 100 -820 38 -188 77 -302 146 -424 180 -321
299 -428 575 -520 165 -55 281 -70 483 -63 179 6 248 17 544 82 l172 38 0 213
0 214 -47 -6 c-27 -3 -97 -12 -158 -20 -375 -47 -582 -57 -707 -33 -75 15
-166 55 -226 98 -48 36 -196 217 -235 289 -41 75 -73 205 -122 497 -41 245
-47 294 -56 540 -16 385 -5 1753 15 1980 14 154 39 327 82 550 37 195 100 317
234 459 116 122 207 168 369 188 72 9 114 7 258 -11 453 -55 565 -12 588 227
l7 69 -383 76 c-211 42 -395 76 -409 76 -14 -1 -69 -5 -123 -10z"/>
<path d="M5160 5366 l0 -2696 104 0 c127 0 253 16 284 36 13 9 31 32 40 52 16
34 17 119 16 952 0 503 -3 1449 -7 2103 l-8 1187 39 0 38 0 12 -72 c10 -64 56
-166 392 -863 210 -434 425 -870 478 -967 l97 -178 151 0 151 0 120 238 c67
130 278 570 471 977 251 531 353 758 362 803 l13 62 43 0 c42 0 43 -1 39 -27
-7 -47 -29 -3962 -22 -4058 8 -124 30 -191 67 -210 41 -21 147 -35 278 -35
l112 0 -3 2613 c-2 2083 -6 2622 -16 2659 -23 86 -68 103 -302 114 l-144 6
-559 -1201 -560 -1202 -55 3 -55 3 -139 300 c-416 896 -804 1728 -834 1790
-48 96 -140 232 -169 252 -41 26 -130 42 -286 49 l-148 7 0 -2697z"/>
</g>
</svg>
