<?xml version="1.0" standalone="no"?>
<!DOCTYPE svg PUBLIC "-//W3C//DTD SVG 20010904//EN"
 "http://www.w3.org/TR/2001/REC-SVG-20010904/DTD/svg10.dtd">
<svg version="1.0" xmlns="http://www.w3.org/2000/svg"
 width="1080.000000pt" height="1080.000000pt" viewBox="0 0 1080.000000 1080.000000"
 preserveAspectRatio="xMidYMid meet">
<metadata>
Created by potrace 1.14, written by Peter Selinger 2001-2017
</metadata>
<g transform="translate(0.000000,1080.000000) scale(0.100000,-0.100000)"
fill="#000000" stroke="none">
<path d="M2635 7670 c-674 -48 -1228 -373 -1590 -935 -150 -232 -280 -568
-340 -882 -60 -312 -60 -735 0 -1028 86 -414 282 -788 569 -1084 397 -407 890
-612 1481 -614 255 0 437 26 675 100 359 110 584 242 831 485 82 82 270 303
269 318 -1 7 -160 133 -163 129 -94 -131 -253 -286 -393 -383 -308 -214 -663
-326 -1028 -327 -461 0 -854 176 -1162 520 -118 131 -203 257 -288 426 -160
318 -227 630 -226 1051 0 350 56 664 167 934 323 784 995 1166 1763 1003 400
-85 737 -401 873 -818 30 -91 62 -233 72 -317 l7 -58 114 0 114 0 0 720 0 720
-171 0 -171 0 5 -42 c12 -85 29 -279 26 -283 -2 -2 -33 15 -69 36 -408 250
-879 363 -1365 329z"/>
<path d="M5110 7444 l0 -136 108 6 c59 3 160 9 224 12 l118 6 -6 -88 c-3 -49
-34 -816 -70 -1704 -35 -888 -69 -1649 -74 -1691 -13 -92 -44 -208 -69 -258
-22 -42 -73 -92 -116 -114 -45 -22 -146 -47 -194 -47 l-41 0 0 -105 0 -105
595 0 595 0 0 135 0 135 -57 0 c-32 0 -134 -5 -227 -10 -93 -6 -171 -9 -173
-6 -2 2 0 129 6 283 6 153 15 490 21 748 14 596 37 1476 50 1845 5 157 10 341
10 410 l1 125 108 -285 c249 -657 547 -1349 1288 -2995 l198 -440 95 0 94 0
243 600 c133 330 466 1153 740 1830 l498 1229 12 -199 c7 -110 44 -729 83
-1375 56 -907 71 -1208 67 -1320 -11 -288 -74 -415 -234 -472 -32 -11 -84 -23
-115 -25 l-58 -6 0 -103 0 -104 695 0 695 0 0 136 0 137 -230 -7 -230 -8 0
128 c0 69 -38 793 -85 1608 -47 814 -86 1538 -86 1608 0 211 27 324 99 424 52
71 173 124 284 124 l48 0 0 105 0 105 -461 -2 -461 -3 -132 -330 c-157 -390
-246 -605 -486 -1170 -236 -556 -437 -1049 -660 -1615 -100 -256 -187 -469
-191 -474 -5 -6 -20 16 -35 50 -83 187 -475 1093 -579 1339 -67 160 -271 632
-452 1050 -182 418 -369 848 -415 955 l-84 195 -477 3 -477 2 0 -136z"/>
</g>
</svg>
